<svg xmlns="http://www.w3.org/2000/svg" viewBox="0 0 119.98 35.57">
  <g fill="#6067f1">
    <path d="M62.44,90.9a5.38,5.38,0,0,1-10.76,0s-.2-1,.84-3.23A13.12,13.12,0,0,1,57,82.21a14.29,14.29,0,0,1,4.68,5.46,6.61,6.61,0,0,1,.77,3.23Z" transform="translate(-40.01 -82.21)" />
    <path d="M62.44,109.1a5.38,5.38,0,0,0-10.76,0s-.2,1,.84,3.23A13.12,13.12,0,0,0,57,117.79a14.29,14.29,0,0,0,4.68-5.46,6.61,6.61,0,0,0,.77-3.23Z" transform="translate(-40.01 -82.21)" />
    <path d="M65.18,94.63a5.39,5.39,0,0,0,0,10.77s1,.19,3.23-.84a13.13,13.13,0,0,0,5.45-4.47,14.21,14.21,0,0,0-5.45-4.68,6.56,6.56,0,0,0-3.23-.78Z" transform="translate(-40.01 -82.21)" />
    <path d="M48.7,94.58a5.38,5.38,0,0,1,0,10.76s-1,.2-3.23-.84A13.21,13.21,0,0,1,40,100a14.29,14.29,0,0,1,5.46-4.68,6.59,6.59,0,0,1,3.23-.77Z" transform="translate(-40.01 -82.21)" />
    <path d="M95.81,94.34A4.15,4.15,0,0,1,93,98.27a5.09,5.09,0,0,1,4,4.78,6.33,6.33,0,0,1-6.7,6.42h-9v-21H89.6C93.38,88.49,95.81,90.74,95.81,94.34ZM85.67,96.77h3.5a2,2,0,0,0,2-2.16,1.92,1.92,0,0,0-2-2.19H85.67Zm4.2,3.69h-4.2v5.09H90A2.38,2.38,0,0,0,92.22,103,2.36,2.36,0,0,0,89.87,100.46ZM99,87.51v22h4.24v-22Zm13.55,18.07a3.25,3.25,0,1,0-3.2-3.26A3.15,3.15,0,0,0,112.52,105.58Zm0,4.14a7.39,7.39,0,1,1,7.4-7.4A7.18,7.18,0,0,1,112.52,109.72Zm15.86-4.14a3.25,3.25,0,1,0-3.2-3.26A3.14,3.14,0,0,0,128.38,105.58Zm0,4.14a7.39,7.39,0,1,1,7.4-7.4A7.18,7.18,0,0,1,128.38,109.72Zm25.06-10.66c1.25,0,2.35,1,2.35,2.83v7.58H160V101.4c0-4.29-2.1-6.45-5.48-6.45a4.87,4.87,0,0,0-4.27,2.52c-.79-1.64-2.31-2.49-4.57-2.49A4.06,4.06,0,0,0,142,97.32V95.25h-4.24v14.22H142V102c0-2.16,1.18-2.89,2.46-2.89s2.32.94,2.35,2.74v7.67H151V102C151,99.88,152.1,99.06,153.44,99.06Z" transform="translate(-40.01 -82.21)" />
  </g>
</svg>
