<svg xmlns="http://www.w3.org/2000/svg" viewBox="0 0 33.85 35.57">
  <g fill="#6067f1">
    <path d="M105.51,90.9a5.39,5.39,0,0,1-10.77,0s-.19-1,.84-3.23a13.21,13.21,0,0,1,4.47-5.46,14.29,14.29,0,0,1,4.68,5.46,6.56,6.56,0,0,1,.78,3.23Z" transform="translate(-83.07 -82.21)" />
    <path d="M105.51,109.1a5.39,5.39,0,0,0-10.77,0s-.19,1,.84,3.23a13.21,13.21,0,0,0,4.47,5.46,14.29,14.29,0,0,0,4.68-5.46,6.56,6.56,0,0,0,.78-3.23Z" transform="translate(-83.07 -82.21)" />
    <path d="M108.24,94.63a5.39,5.39,0,0,0,0,10.77s1,.19,3.23-.84a13.21,13.21,0,0,0,5.46-4.47,14.2,14.2,0,0,0-5.46-4.68,6.56,6.56,0,0,0-3.23-.78Z" transform="translate(-83.07 -82.21)" />
    <path d="M91.76,94.58a5.38,5.38,0,0,1,0,10.76s-1,.2-3.23-.84A13.21,13.21,0,0,1,83.07,100a14.29,14.29,0,0,1,5.46-4.68,6.61,6.61,0,0,1,3.23-.77Z" transform="translate(-83.07 -82.21)" />
  </g>
</svg>
